<svg version="1.1" x="0px" y="0px" width="868" height="537" xmlns="http://www.w3.org/2000/svg" xmlns:xlink="http://www.w3.org/1999/xlink" xmlns:a="http://ns.adobe.com/AdobeSVGViewerExtensions/3.0/" xml:space="preserve"><g transform="translate(340.93431579285 262.31665039062) scale(2.6084554591267 2.6084554591267) rotate(0 82.258331298828 25.816665649414)"><path d="M147.992,0c-15.545,0-38.152,8.642-58.756,21.448h5.867c17.067-8.984,34.328-14.681,46.938-14.681
	c19.426,0,21.608,13.487,7.11,31.745C169.867,16.921,169.749,0,147.992,0z" fill="#fbd899"></path><path d="M46.596,39.208c-8.909,3.025-17.223,4.742-24.135,4.742c-19.426,0-21.608-13.486-7.11-31.745
	c-20.715,21.593-20.597,38.513,1.16,38.513c11.051,0,25.671-4.382,40.603-11.51H46.596z" fill="#fbd899"></path><path d="M107.438,21.448c15.579-8.788,33.224-11.627,33.224-11.627c-16.448-0.112-33.283,8.026-39.918,11.627
	H107.438z" fill="#514b46"></path><path d="M63.13,39.208c-15.889,9.397-34.567,12.401-34.567,12.401c17.771,0.121,35.993-9.389,41.314-12.401H63.13z" fill="#514b46"></path></g>
<g transform="translate(20.132365115356 20.566680908203) scale(5.8915281279114 5.8915281279114) rotate(0 42.099998474121 42.099998474121)"><path d="M42.097 0C18.846 0 0 18.848 0 42.097s18.846 42.097 42.097 42.097 42.097-18.848 42.097-42.097S65.348 0 42.097 0zM25.238 74.871c-1.236-2.079-2.227-2.475-2.227-4.107 0-1.632.397-9.301.397-9.301s.594-.147.247-1.979c-.329-1.736.633-5.293 1.62-6.247a9.33 9.33 0 0 1 1.298-1.668c1.732-1.73 2.808-7.573 2.686-10.717-.011-.17-.013-.265-.013-.265.004.085.01.176.013.265.112 1.661 1.157 10.455 10.624 7.896 0 0 .939 2.968.939 4.503 0 1.533.495 11.723.048 13.802-.444 2.078-1.83 7.025-2.027 7.866-.06.254-.088.521-.09.778a72.786 72.786 0 0 1-2.767-.488 28.773 28.773 0 0 0-3.198-.454c-1.674-1.121-2.031-1.888-2.652-3.992-.644-2.176-1.929-5.838-1.831-9.597.099-3.76.891-6.233 1.781-7.815.879-1.563 1.658-2.542 1.633-4.277a4.656 4.656 0 0 1-1.154-.798s-1.386 3.194-3.43 4.71c-.615.458-1.109 1.121-1.502 1.828.093 1.002.157 2.132 0 2.443-.296.594-.592 1.139-.592 2.324 0 1.188.443 2.129.693 2.376.245.248 2.819 9.944 2.819 9.944s0 1.6-.445 2.358a1.698 1.698 0 0 0-.18.508c-.923.089-1.768.22-2.538.375-.053-.091-.09-.167-.152-.271zm17.661.195c-1.73-1.383-.941-2.82-.741-4.797.197-1.979 1.01-7.224 1.01-7.224s1.018-.494.275-2.572c0 0 .387-2.489.52-3.989v-.003c.008-.107.018-.214.024-.312a7.73 7.73 0 0 1 .033-.352c.163-3.159-.997-7.594-.997-7.594-.412.389-.957.367-1.397.33.703-.355 1.62-1.104 1.536-2.164-.132-1.647.924-3.76.924-3.76-.833 2.404.007 6.776.611 9.286l.033-.149a31.845 31.845 0 0 0 .466 2.05c.095.342.191.629.275.77.297.494.842 1.731.842 3.364 0 1.631-.299 3.512.146 4.749.447 1.237 1.387 5.54 1.387 6.926 0 1.145-.201 5.521.454 7.011a76.774 76.774 0 0 1-4.324-.277c-.095-.31-.38-.734-1.077-1.293zm24.776-2.392c-3.222 2.539-8.436 3.657-14.039 3.932.068-.441-.051-1.088-.99-1.686-1.635-1.039-3.018-.743-3.067-4.255s-.347-10.587-.347-11.625c0-1.039.347-2.82.94-4.453s1.433-4.649 1.433-5.838c0-1.188.298-1.237 1.931-1.583 1.632-.346 8.163-1.534 9.942-7.471.627-2.084 1.014-3.774 1.344-5.134.258-1.074.141-2.583-1.045-3.474-1.188-.89-1.683-1.979-1.683-1.979 1.668 1.973 4.552 1.168 5.809.686.224-.098.429-.184.618-.267 1.148-.495 1.699-.748 1.885-.912 0 0 .119-.136.313-.267-.892-1.461-.479-2.075-.479-2.075.285 1.061.906 1.594 1.385 1.854.086.019.176.047.266.092.104.053.23.104.367.151.325.112.717.196 1.051.185 1.412-.544.088-1.411-.521-1.746a3.999 3.999 0 0 1-.271-.141s.112.052.271.141c1.547.72 1.299-.987 1.299-.987-.181-.256-.506-.52-1.058-.77 0 0-.198-1.979-2.079-1.633-1.879.347-4.946.544-6.382.396-1.435-.148-2.819.049-2.819.049s-.246-1.482-2.623-1.336c0 0-.492.594 0 2.276.495 1.683.352 5.641-.218 8.162-.573 2.523-3.739 6.976-7.695 1.485-3.957-5.492-6.729-12.37-11.923-13.359-2.697-.513-4.379.694-5.374 1.973 0 0-.276.357-.652.998-.434.797-.604 1.433-.604 1.433s-.069.047-.19.126c-.565 1.284-1.112 2.992-1.244 4.971 0 0-.614-1.171-.459-3.841-1.062.712-2.301 1.558-2.955 2.061-1.287.989-2.572 1.633-2.473 2.424 0 0-2.326.691-3.017 3.66-.693 2.97-1.535 1.632-1.831 5.095-.296 3.464-.149 7.373.493 9.4.645 2.029.744 3.364.744 4.503 0 1.137-.842 6.134-.842 8.509 0 2.374.347 9.35.347 10.289 0 .612-.6 1.93-.874 2.943-9.963-6.714-16.645-17.913-17.168-30.701 22.357-.496 6.432-2.088-.015-2.644a38.761 38.761 0 0 1 9.581-24.567c74.281-.471 19.314-2.263 2.648-2.751C22.377 8.406 31.764 4.375 42.097 4.375c21.509 0 38.946 17.435 38.946 38.943 0 3.346-.423 6.593-1.216 9.69-39.018.48-9.268 2.294-.829 2.76a38.992 38.992 0 0 1-11.323 16.906zm-4.692-47.391s.166-.296.494-.296c.331 0 1.157 0 2.179-.461l-.464.56s-.328 1.188-1.352.363c.001 0-.46-.232-.857-.166z" fill="#514b46"></path></g>
<g transform="translate(390.83427917175 325.93334006632)  scale(0.62610760255797 0.62610760255797)"><text dominant-baseline="auto" alignment-baseline="auto" font-family="Aquatico" font-size="62px" fill="#514b46" letter-spacing="4" xml:space="preserve">BOB</text></g>
<g transform="translate(490.41765319519 419.0999997832)  scale(0.69024744821349 0.69024744821349)"><text dominant-baseline="auto" alignment-baseline="auto" font-family="Debussy" font-size="34px" fill="#514b46" letter-spacing="2" xml:space="preserve">RAID 4X4 ET DECOUVERTE</text></g>
<g transform="translate(513.2009783905 358.35001305489)  scale(1.1091940560188 1.1091940560188)"><text dominant-baseline="auto" alignment-baseline="auto" font-family="Aquatico" font-size="34px" fill="#514b46" letter-spacing="0" xml:space="preserve">AVENTURE</text></g>
<g transform="translate(426.01762878113 440.56665039062) scale(2.7154811041489 2.7182819183818) rotate(0 77.675003051758 8.341667175293)"><path d="M77.673,6.879c28.537,0,55.16,3.593,77.674,9.799c-21.391-8.889-48.361-14.19-77.674-14.19
	C48.361,2.487,21.39,7.789,0,16.678C22.515,10.472,49.138,6.879,77.673,6.879z" fill="#514b46"></path><path d="M77.673,4.391c28.537,0,55.16,3.593,77.674,9.798C133.956,5.301,106.985,0,77.673,0
	C48.361,0,21.39,5.301,0,14.189C22.515,7.984,49.138,4.391,77.673,4.391z" fill="#fbd899"></path></g>
</svg>